# xmcd
#
# Track frame offsets: 
#        300
#        85252
#        103448
#        120522
#        141884
#        160262
#        175155
#        194183
#        216573
#        231608
#        242371
#        258462
#        281126
#        295584
#
# Disc length: 4179 seconds
#
# Revision: 0
# Processed by: cddbd v1.5.2PL0 Copyright (c) Steve Scherf et al.
# Submitted via: ExactAudioCopy v0.99pb5
#
DISCID=e1104f0e
DTITLE=Bronco Bob - Gunfighters Don't Charge By The Bullet
DYEAR=2003
DGENRE=General Blues
TTITLE0=Excerpts Of 12 Original Songs
TTITLE1=Headed For The West Coast
TTITLE2=Hey There
TTITLE3=Lime Fender
TTITLE4=Then And Now
TTITLE5=Hand In Hand
TTITLE6=Take My Heart
TTITLE7=June
TTITLE8=Lonely Child
TTITLE9=Loretta
TTITLE10=Gunfighters Don't Charge By The Bullet
TTITLE11=Tear In F 7th
TTITLE12=Hunting Hell's Rhythum In E
TTITLE13=Fire
EXTD=
EXTT0=
EXTT1=
EXTT2=
EXTT3=
EXTT4=
EXTT5=
EXTT6=
EXTT7=
EXTT8=
EXTT9=
EXTT10=
EXTT11=
EXTT12=
EXTT13=
PLAYORDER=
